/* XPM */
static char *result[] = {
/* columns rows colors chars-per-pixel */
"64 64 47 1 ",
"  c #120C0A",
". c #130D0B",
"X c #150E0B",
"o c #140E0C",
"O c #150F0D",
"+ c #170F0D",
"@ c #17100D",
"# c #18100E",
"$ c #18110E",
"% c #19110F",
"& c #19120F",
"* c #1A1210",
"= c #1A1310",
"- c #1B1311",
"; c #1C1310",
": c #1D1411",
"> c #1E1512",
", c #1F1613",
"< c #201612",
"1 c #211613",
"2 c #211713",
"3 c #201614",
"4 c #201714",
"5 c #221714",
"6 c #221814",
"7 c #231815",
"8 c #231915",
"9 c #241916",
"0 c #241A16",
"q c #251A17",
"w c #251B17",
"e c #261A16",
"r c #261B16",
"t c #271B17",
"y c #271C17",
"u c #261B18",
"i c #261C18",
"p c #271C19",
"a c #281C18",
"s c #281D18",
"d c #291D19",
"f c #291E19",
"g c #2A1E1A",
"h c #2B1F1B",
"j c #2D201B",
"k c #2F211D",
"l c #2F221D",
/* pixels */
"0>664%,t>4:866*646>>,0q696-:>>,68q*:u:67,80::>;>8;+2asu2>O:6::68",
"33,46,>r,6,0*6666:*,t:;;6t>,et6%>@>w:Oo468,>::g,66>6s466:877q9:6",
",;%-6t0>>,>622,22>780re>#6>6r>,,q6>:&>64>6w,::4,44464062-*88t>**",
",;oO6q08:*66#:68,,q26ysy2*2te>,#,44>0446866>>+#4,44>6w2y0*>4;@+>",
">:6O%>00@:u2>>+;%>,t668,0uu,*6*O%>6>,4>644,,8:- 44,286260t>%#;ut",
",6;07>6,%669060*,660qtw2%@>w>6:a%6666,*-,%>6a,66O,22#88666>:quut",
"99,qw4O+>86,620#0r6>4wu8>:0>o:42:*,88u&,$60664640u2,q06a69q*%:>>",
"60*2>;#>>,882t>,:864>*66,;49>4p,44:q66@$#666#4262eu8>,u68>*;*:;>",
"#;#*;,,%>2882606:;,464*%%%6,:-:@O*>67@i666%#++,602608228q>,>q>9>",
"**>;76>,o,4,,2uu>8>;4>%,86oO66:6>,;u6+6:4886;>;>076688>,9,>8t2>>",
"6;*>0,204,*:64,,>6664%9,0,6*668266>,::78>680d82>:,666>>,4>8068u1",
">,*8>*;w:4,:*>>O:4,,>:4,>>46866606:4O:8>%980>t68**%*2>,>>>66;,tu",
"%**84>220444:,>>>*g2d,*>>,,,8>6226,:++#;8,6;>d92:,62eu>,>@;6>>::",
";sw6::868644>:,i:>2,860#u0q06;260tq6,qa@66880a>2;*,9ee6;+694*;;;",
";8>88+82,444>,>6%*62%8,>,,66;*%:#942e88@@>>:006q62682r0864447e:,",
"666682>9>6644>84:h>;>>s>@8>>.q6:0;*6h0>#>::*686*622er,8:%*%%*q8%",
"*%664%#*:>66066,%,>,9>2:,>96;99>>8*%d6>@>66>2**62>*>w>*;8t>>>8uq",
"*@:9=%>w64>%8:0>:6,#,,26>:%O:8d>706%828,6>>;88d2822;>;*4644%s,a%",
"4**#$#8t846w%-->*%>62,86>*:48>>27w>O*96768#q8688,2,;>>:6646&%;,,",
"O664##6aa64:,+,::>4,66>*;,#*0,92fy6*%>8>8>>>>%82q,6;*>s64;->6>%o",
"s>,,w>#6u6:*%;>8666666>%6wu+#8,4y0,>>6>1,7>,,>>886;*>:4,>696>a>>",
"8r69w6*%6>%46*62@;66>6:682>8,*%>,,,,:>88;>,td,6;;6;,2a%#,6%>60>>",
";6;4,:>s#%4%%4660+;46,4>64:4g7,#>,26*:66%,,%46,**O,%>qwqtq:088>,",
"q88>4@4644a6#640>% -4*;>>::*>676q66::%%>>,,6>>O>>44O9,>,68>;6>:u",
";4q8::>4%4066#68#>,%:6,*;66>28>:699>>>,*34l68,>66;OO26r8606*2>*;",
">::>:>44446660@*:q9>666a*:,46u9**>:,9>;;68>666;426q8wt26:%,*;28>",
"602q862,6*666q6>w,4>>aqq*>>,**:>u:*,6*;;6666,8#,6,082w0u%%>>q26,",
"2686;>68-:*,,2,8q0,%284%*894*6,;40>**>6>,;682%:ss622262626a#>>,>",
"62878*;66,:9>8>:>++#%*%u6696;2886>q0q696:;6;*2>8sa26;02726ay,>u,",
":>tqs*6280>*:>:*6qqq84%;67g,4%%>q27766868>9>>7u66062>868,ee26:,>",
"68q66o-60068:.9q3uqqq68%6,**>%o679906>776,*>2,6:6qq$*>,**2692,#:",
"984q->O%,64086>>u9u,68;;*@,4>>#>7076288226:6ds,+9wq>;:%2,#,600>*",
"6,8::,4:46>4%o;*6u,6qr#,6,6826>:6#>,6*0068>%%%6%20>;8626,:228884",
",@#0>>>:>86#%wk,%:#4t,#6t666886:%>8s6,*826>;%%%%;>;:82>266,8804+",
"j6088h6>*48-86648**%6q,**:::w>486:>,60;**4q8*,2*#;>2>;22>>600;>>",
"w,;*8006::-*62664,%o,y>,w,86;-**66,;80:84**;;06>8da,6d2aa8,06:>#",
"+#6@#086>O>>6;:>66,:#;,69ww86600O#6:6,*u,2a6;,,:>,,ad2>2>du**62%",
"-q666%#+#*:4q468,,69%0866,,*80r08,*:###2,029e6ye>>,t22:,,,896&>6",
",,287u,6,4+*66660y66,68g,89%>66270666,%%608,,,0>>,;#**>9299::6%%",
"6w,q62>8:O%o*6262eq0>*866>>%;6087e+<ag2#%>68>u>2>0w88;>68;*;#>4,",
">2,44%-%*600%%4602688%::86w%,>66>6:;6>et:,802;>>*;w20>>+#+666 ;,",
">,%%%#o:>w,>6--,00886*:>4%#,2:;;26@670>6>;;*>2,,rr86>8068>>,0>*,",
"2,,,4O-44u8666>4>,q9*%>46,6>,>*#%>#2q209>:q>;%@,e06e82e28;6>,>>>",
"8>>4>-:642:>466:6:%+:*4,,>6>,,>t60#8>>:w%:>8ts6>87;22+e,,,w>>>*,",
":-:>>-:-::>3>6944:*:0w*6,,sw8>+,>,62*;;#>*,0606>62e2u,0e068,>>,*",
"#>:*%*-:6::4464,,*>>2>:*,w26:>+wuuww0&6:6:>wuu,:>>7>0>620002>>;:",
"6s,6d6***>>%>44666,7,>29>o#+4+>9ww>0>$,6,>%%0w>>09ee>>+2864>62,s",
"8868h0:*6yw$O>:4s>686>89*8> %88,86;688:,600%#+*>2622;O6@*6%;,w2>",
",666g2,*%08,>->oOO,66,>:894:>60822>,>%#*,:3%>0s>,,ra66,##%>,O60>",
"6666828s>:wo*:-$666>4,:>644:;4w26>,w:4>,>:w*#78*,at,2>>%>09,2O7>",
"66#%;06afw:>:&89>6>44$>>>464,*4,6:,4,660w0>9te6e,,>26;>:929,6>O>",
"8062;>0at,>>>*6w,,44400622,466%%**4,,:0ww>6ee2eu*;;*68:666,77,,#",
"w8,>2**4604>:-688:66,6q,,20,>,>6u>O@66>62t;2,>qe:>,>*;:>29,>>6::",
",2>6,>>*>>>444>;2866>662262q,;657080>,a6>,;s8>0;%>uq68>,96,686**",
":>,4,>ud;*,@:42682*:08w66228;,86;6;6;>:,;;;::%**>>>428;:9t:6q%@*",
"OO:4>:,7>>o&,,,886-&:X626>>>%>60287:2*6a682;-%:>>%;6a8**2,*%,69;",
"q,>>:>2*,404062>66-66>688*>>:>>>97w02*4>268>&*86>>,226>4,22,28,,",
">;>0w>>687:>2664>26,68wq,*>,,>>;:62q***60a88>6,4,40q6966,a66ta2+",
"62:4u0899,6>:446:>t2@666*%26h686:868w2*6;662>>*66*22quq6@4,69,22",
"28;;>:007>9>,>:ss6226:#***8:8,2:;669>,>0>4>*,2::;2,2866>@>>>,;>;",
",>0;97089>6*:>*0sa26t8+:,0;8888,;>97ww068>46>8>>62266,,>666>%*96",
"q>6>:48>26:o>,:26866u:200t9;;4:>%4uws94:98:>>q0*,66,,,,>>>g>9:*2",
"96>9::78:>:,,>6%2w0:88:89900;*%%86960::::*;88;22%09,929+>,,2,:%6",
"qq96::6:O>,asa,#*8:;,::09>97;u:*q864:>:-80608,>,626&268:4>a,#666"
};
