/* XPM */
static char *result[] = {
/* columns rows colors chars-per-pixel */
"64 64 73 1 ",
"  c #7B6046",
". c #836647",
"X c #83664A",
"o c #85694B",
"O c #8B6D4D",
"+ c #8E704E",
"@ c #91724F",
"# c #8A6F52",
"$ c #8E7252",
"% c #947554",
"& c #987756",
"* c #977956",
"= c #997A56",
"- c #947759",
"; c #97795B",
": c #9B7D5B",
"> c #A07E5A",
", c #9E815D",
"< c #A1835E",
"1 c #A3885F",
"2 c #A8885F",
"3 c #9E8360",
"4 c #A48660",
"5 c #A68862",
"6 c #A98B63",
"7 c #AB8E69",
"8 c #AE9165",
"9 c #AD926A",
"0 c #B39365",
"q c #B2956C",
"w c #B7996A",
"e c #BA9D6D",
"r c #B49772",
"t c #B59B72",
"y c #BA9E74",
"u c #BCA06F",
"i c #BEA273",
"p c #BCA27A",
"a c #C2A576",
"s c #C3A877",
"d c #C3A77A",
"f c #C6AA7B",
"g c #C9AD7E",
"h c #CBB17F",
"j c #C3A982",
"k c #CBAE81",
"l c #CDB384",
"z c #CEB588",
"x c #CFB98E",
"c c #D0B586",
"v c #D1B789",
"b c #D2BA8C",
"n c #D5BE92",
"m c #D4BF98",
"M c #D6C195",
"N c #D8C397",
"B c #D6C299",
"V c #DAC59B",
"C c #DCC99E",
"Z c #D7C5A1",
"A c #DBC7A1",
"S c #DDCBA3",
"D c #DECEA9",
"F c #E0CDA5",
"G c #E0CFA9",
"H c #E0D1AB",
"J c #E3D4B3",
"K c #E5D8B6",
"L c #E5D7B8",
"P c #E6DABC",
"I c #E9DEC2",
"U c #EBE1C6",
"Y c #EBE2C9",
/* pixels */
"elpBHDDHHJHJGJHJHJJJJLLJJLJJLJKKKKKKKKKKKKKKKJJJJJFJGJJGGJFGCdva",
"iz4dvvzbblczvbbvbbbvbbnnnnVVCCnVVVNNCCNNNnnnnnnnbbbcbcbnbnbbh0va",
"yl4dbvbbbbbbvbbnnnnbnbbbnnnnNnNnNNNNVVNCVVVVNCNNNNCCNCCCCCVVc0va",
"pl4fvbvbbbbMnMnNNNVVVVCCCCCFCCVVCCCVCCCCCCCVCCCFFCCCCCNNNNnNk7nd",
"il1fbbbbbbbnnnnmMNNnNNNVVVVVVCVVCCCCCFCCFCFFFFGFFCCCFCCNVNNmk6Nf",
"pl5gMMMMmnVmNVVCCVVCVCCFFCCFFCFFCFFFFFCCCCCCCCNCNCCNNNnNNNnNk7Vf",
"dl5gbMMNVNVVVVCVVCCCFCFCCFCCVCVnNNnNNnNNnnnnNNNnnnnbbnnnbnnbk>Af",
"px8lNVMMNVVAVCCFFGGGFGFFFGFGFFFFCFFFCCCFCVCCVnnNNNCNNNNNNNNNv7Ak",
"dn6lnnnnnVmCCFVCDSSSCFFHGFFFGGGFFFCCVCCCCCVCCNNNVNnNMnnnbnnbk2Fk",
"in6hnnnnnnnnnnnnMMMVVCCCCCFFFFCSCFCFFFFCCCCVNnNnmNnnbbbvvvvvf2Zk",
"dm6hnvbvbcvvvcbbbbMbMnMNNCVNVVNVCCCCVCCCNVnNnnnnbbbbbvzzvvvvk5Af",
"im5akgfdgfgffffgggghghhcchcvvMbxbbbhbvvvccchckhggggfffdffaaar>mk",
"dmq,<:::::::>>:&,*,,,<11622261880002222222>>5>>>>:>&=&&&&&$%O7Fg",
"fBjDKJJJJJJKLLKLKKPPPPUUUUUUYUUUPPUPIPLLKJJJJJJJJJJJHJJDHHGJmymk",
"fB4dbbbbMMNNNNVCCCCFGGGHFDFFSDFFFCCVCCVNNVVVnVnnbbbbnbvvzkccf>Fc",
"jB,fbMMMNVVCSCAFFFDDGFDDDDFDFSFSFFFCCVVVNnnbbbbbblllhhkgjkfge>Vg",
"lB5hMNNNCCCVnCVVVCVVCCCSSSSHHDHHHFHFHSDDCSSSSVNNMNMbbnbbvbcla:Nc",
"hB5kNNNNmCVCFFGGGGHGGGHHHHHHHHHHHHHDHHDDSSCCAVVNNNNNnnMnbbbbd4Vl",
"fV6gNNNVCVVCmFCmCVCSCCCSGGHHHKHKKJKKKHJHHGSAVNVNNNMMMMbnMnnng5Nl",
"fV6lMNNNnVCCCCFFGGHHHHHHHHJHHHHHHHHHHHHHHHGGSGSSACVnbMbbczhha>Nf",
"fN5gMnnnnnnnNmNmNVBVCSSDDDFFGDGGHHHHHDSCVVVSVVVNNnMbbnbbbvvva>nf",
"gV5gnMnnnmNNNnmnmMVNVNVVVCVCSDSSCSSSSSCCVVVBMMMbnnbbvbvbvbvli<nh",
"fV:illlzvbbbbbbnnnMMMBMMNNNMVNVNNCCCCVACCVCVVVVBnnbbbbzvvccla,nf",
"jA4sbbzbbvvbvbnnnbbbxbbbxxMMMMMNCCSSSSSSSSSVCVMnbbzclhllhhggy=vg",
"lA*yfdddffkkkkkkkllzvbbvvvbnMMbMMMMBNNBMMNMMnzzllzkjdaayiuyu8&nf",
"lV9*;%&&&&;;;;>><>433424665699989qw9ttttt99998765>>:&%&%$%$#X4xg",
"lAjDLGHGGJHHJLJJJJJLLPPPIIIPIPPIPPPPKKKHJJJHHHDDHHGDFDFFSSDHZyxk",
"zB4fxnnnnmNmVVVVAASDDSGGDGGGDHHGHFHCSCCCVMMMMMmnmnbbvvbbvbvvd6vg",
"zB5hnnmVAAASAFSASAASSSSGSDDDDDHGHHHDHDHDGFFDFFFFAFCVCCVVVnnnf6bg",
"lm<fvbnnmmNVCSSDDHHHHHHHHGHHHHHGDHSDSSSCCCVCVNmnNmnmnnnnnnnng6bf",
"fn6kMBNVCFFFSGDGDGGHHHHJHHHHHHGHHHDDDDDSFSGDCCCFVNNNnNNnnnnng6nf",
"gB6knnnnnNmNVVVVVVSVSSSSDDDHGHGGHHDDDDDDCCVVNCVVVVVmNNVNVNnng5nf",
"gM5lVNNVAVAVVSDDSDDDDDDDHHHHHHHHDHDHSHSCSSNNCMMMMMMMMMMNMMMMs6Ms",
"gC6lBNNNVVVAAVCSVAVVVVCSCDDDHDHDSHHHHHHHDSDDSSSSCCNMMMNNMMMMg6Nh",
"fM6gmMMMmBnnMNNVNVVVCVCCSFDHHHDDHHHHHSCSCCBBNCMNMMCMMMMMMhMvf2Ms",
"kN<fzbnbbnnbnnMbNBMMMVVBCCCCCCCSSDSSSSSSSSCZCCMMMlMMchiMhhhha<Mh",
"lV4ikkllllcczzbbzbMnMMxMMMMMBBMBCBMBNNNNMMMMxMxhhhMhhhhiggkfe:Ms",
"bS3#-  oO+%%%-%:,3<,,,,6188899998999898811111,3*,, ,O,, O#$#.:Ng",
"lVpZHDDDDDDDHHHJJHJJJJKKKKJKKKKPPPPPPPPPKPPPKKKKHHHJHDHHJGDDmrMh",
"lV;ilkkjlzllzbzbnnnMMMBMMVCZSSSSSSSSSSSSCCBBMMMMMMMMMMMznbbbf5Vl",
"gS,ilbxbzvMMxbbMnmMMMMnMMMMMbMMMMMMMMMMMMMMBBBMMMMMMMMnMnnvnf4Av",
"gS4pxbxMMMMMMMMMMMMVVVSCSSCSDDDDHDDBSCCCBBCCCZBCBVVVBNMMnnnng5Ab",
"fB:ihlzzbbbbMMMMnMMMMMMMBBVNVVAACSSSSSSSSSCSCCCCSVVVNNMNnnnnk6An",
"in:izzbbbxlzzvzbxbbMMMMMNNSCSSDCSSSSSSSSSDSCCZCCVNMMnMMbnvvza>Cn",
"fn-uhhllzvbbxnMNASCDDSDDDDDSDSSCBCNNCMCCCCCZCCCZVVBMNNMnnbbcd<Vn",
"fx,ihzzxbbMbMMMMVVVVVVAVASDDDFGFDDSDHDDHDDDSCCCCAASVNNMmnbbbf<Nz",
"sz=icvMczMMbMNMNBNMBBMVSVSCSSSDSDSDHHDHDSDDDDDDDSCSAVNMnnbbzi:Bh",
"iz1sbzMMnbMMMMBNVSSVSSASSSSSDGHHHHDDSCCCCCCCBBBMMMxMbbbxzlzzi:nh",
"iz*igglllxxbMMMMBMMMMBNVVVNNVNVMBBBNNNMnMnnnbbnbMxvvzzllhhllu,xf",
"ib,effffghlllllhzlzvczlzbbbbnnMMMNNVCNNVMMnnbbvvlllhgdffiiii7-Mi",
"ix6;*$++$%%$$--**::::,<4,4556656666656555454444<,,,*&&%%-$-$o3Mu",
"ixjDKJJJJJJJJJJHJJJJJJJJJJJJJKKJKKJKJJJJHHDJDHFFDSDDSDSGDDDJAizu",
"ix5fzzlhhhhhllcczbbbbbbnMMMBnnnMMMMMMnnbmnbnnbbbxzbbbbvbbbbbf5zi",
"uM:ihlhhlzbxvvvxbbbnnnMMNMnNNCCCCCBVCSCCVVNnnnnnbMbbbvcccchbf6bi",
"iz,izllzhlclcvvvbnbnnMNNVVCVCVVVMMBBVNNNNNNBnnVnMMMnnnnnbbbbg2Mi",
"px&ihlbbbbbMMNMBMNVVNMNNVNNNmNnmMMMMnnMNnnMMVVnNNNMNnnbbbbchu=Mf",
"iz,illlzvzbnnnnNNNNSSCCSCCSCCCCCCCNBMMMMnnnnnnnbbvvvccccchcha>ng",
"iz*yhhllbbvnbnnnbMMbMNVVNBBVCVVVCNCNCBMMNNNNNNNnnnnbvccchhggw@ms",
"al=izlhlclcvvbvbbMMMnNMVCCCCCCCCCCCCVVNNNNNnnbnnnbbvbvcccccca<Va",
"il*eghhlcbbbnnbnbMMMNNNVCCVCVVNNBBMMMvMMvbcchcckhhghgghghggha<Va",
"wl&effghhlzvvbbbMMbMMCBMMMMMMnbMbMMbvccvvvvvbbvgchhgfggfafdd0@Ne",
"wl*efggghhlllcbbbMMxMMMBMMMMNnMMMMbbvchhhghhhkgggffafaadiieu0@me",
"qz+8w000weeeaadfffhhhhcccchllhlllllghhhhddaaaauaeeeew00000002+me",
"0z6$$O+++&%%%%&%**&*,,,,,,,,<<<<<,<,=,=,>>>&@&@&@@@@@O.o..oo <na"
};