/* XPM */
static char *result[] = {
/* columns rows colors chars-per-pixel */
"280 24 2 1 ",
"  c #D8C397",
"f c None",
/* pixels */
"ffffffffffffffffffffffffffffffffffffffffffffffffffffffffffffffffffffffffffffffffffffffffffffffffffffffffffffffffffffffffffffffffffffffffffffffffffffffffffffffffffffffffffffffffffffffffffffffffffffffffffffffffffffffffffffffffffffffffffffffffffffffffffffffffffffffffffffffffffffffff",
"ffffffffffffffffffffffffffffffffffffffffffffffffffffffffffffffffffffffffffffffffffffffffffffffffffffffffffffffffffffffffffffffffffffffffffffffffffffffffffffffffffffffffffffffffffffffffffffffffffffffffffffffffffffffffffffffffffffffffffffffffffffffffffffffffffffffffffffffffffffffff",
"ffffffffffffffffffffffffffffffffffffffffffffffffffffffffffffffffffffffffffffffffffffffffffffffffffffffffffffffffffffffffffffffffffffffffffffffffffffffffffffffffffffffffffffffffffffffffffffffffffffffffffffffffffffffffffffffffffffffffffffffffffffffffffffffffffffffffffffffffffffffff",
"ffffffffffffffffffffffffffffffffffffffffffffffffffffffffffffffffffffffffffffffffffffffffffffffffffffffffffffffffffffffffffffffffffffffffffffffffffffffffffffffffffffffffffffffffffffffffffffffffffffffffffffffffffffffffffffffffffffffffffffffffffffffffffffffffffffffffffffffffffffffff",
"ffffffffffffffffffffffffffffffffffffffffffffffffffffffffffffffffffffffffffffffffffffffffffffffffffffffffffffffffffffffffffffffffffffffffffffffffffffffffffffffffffffffffffffffffffffffffffffffffffffffffffffffffffffffffffffffffffffffffffffffffffffffffffffffffffffffffffffffffffffffff",
"ffffffffffffffffffffffffffffffffffffffffffffffffffffffffffffffffffffffffffffffffffffffffffffffffffffffffffffffffffffffffffffffffffffffffffffffffffffffffffffffffffffffffffffffffffffffffffffffffffffffffffffffffffffffffffffffffffffffffffffffffffffffffffffffffffffffffffffffffffffffff",
"fff           fffffffffffff  fff  ffffffffffffffffffffffffff  fffffffffffffffffff  fff  ffffffffff  fff          fffffffffffffffffffffffff  fffffffffffffffffffffffffffff  ffffffffffffffffffffffffffffffffff  ffffffffffffffffff  fffffffffffffffffffffffffffffffffffffffffffffffffffff",
"fff           fffffffffffff  fff  ffffffffffffffffffffffffff  fffffffffffffffffff  fff  fffffffff   fff          fffffffffffffffffffffffff  fffffffffffffffffffffffffffff  ffffffffffffffffffffffffffffffffff  ffffffffffffffffff  fffffffffffffffffffffffffffffffffffffffffffffffffffff",
"fff  fffffff  fffffffffffff  fff  ffffffffffffffffffffffffff  fffffffffffffffffff  fff  ffffffff    fff  ffffff  ffffffffffffffffffffffffffffffffffffffffffffffffffffffff  ffffffffffffffffffffffffffffffffffffffffffffffffffffff  fffffffffffffffffffffffffffffffffffffffffffffffffffff",
"fff  ffffffffffff       fff  fff  fff        fff       fff      ffffff        fff  fff  fffffff  f  fff  ffffff  ffffff      fff       fff  fff        fff       ffffff      fff       ffffff  fffffffff  fff  fff         ffffff  fffffffffffffffffffffffffffffffffffffffffffffffffffff",
"fff  ffffffffffff       fff  fff  fff        fff       fff      ffffff        fff  fff  ffffff  ff  fff  ffffff  ffffff      fff       fff  fff         ff       ffffffff  fffff       ffffff  fffffffff  fff  fff         ffffff  fffffffffffffffffffffffffffffffffffffffffffffffffffff",
"fff  ffffffffffff  fff  fff  fff  fff   ff   fff  fff  fffff  ffffffff  ffff  fff  fff  ffffffffff  fff  ffffff  ffffff  fff fff  fff  fff  fff  fffff  ff  fff  ffffffff  fffff  fff  ffffff  ffff ffff  fff  fff  fffff  ffffff  fffffffffffffffffffffffffffffffffffffffffffffffffffff",
"fff  ffffffffffff  fff  fff  fff  fff  ffff  fff  ffffffffff  ffffffffffffff  fff  fff  ffffffffff  fff  ffffff  ffffff  fffffff  fff  fff  fff  fffff  ff   ffffffffffff  fffff  fff  ffffff  fff   fff  fff  fff  fffff  ffffff  fffffffffffffffffffffffffffffffffffffffffffffffffffff",
"fff  ffffffffffff  fff  fff  fff  fff        fff  ffffffffff  ffffffff        fff  fff  ffffffffff  fff  ffffff  ffffff  fffffff  fff  fff  fff  fffff  ffff   ffffffffff  fffff  fff  ffffff  fff   fff  fff  fff  fffff  ffffff  fffffffffffffffffffffffffffffffffffffffffffffffffffff",
"fff  fffffff  fff  fff  fff  fff  fff  fffffffff  ffffffffff  ffffffff        fff  fff  ffffffffff  fff  ffffff  ffffff  fffffff  fff  fff  fff  fffff  ffffff   ffffffff  fffff  fff  ffffff  fff   fff  fff  fff  fffff  fffffffffffffffffffffffffffffffffffffffffffffffffffffffffffff",
"fff  fffffff  fff  fff  fff  fff  fff  fffff fff  ffff fffff  ffffffff  ffff  fff  fff  ffffffffff  fff  ffffff  ffffff  fff fff  fff  fff  fff  fffff  fff fff   fffffff  fffff  fff  ffffff  ff  f  ff  fff  fff  fffff  fffffffffffffffffffffffffffffffffffffffffffffffffffffffffffff",
"fff           fff       fff  fff  fff        fff       fffff  ffffffff        fff  fff  ffffffffff  fff          ffffff      fff       fff  fff  fffff  fff       fffffff  fffff       fffffff    fff    ffff  fff  fffff  ffffff  fffffffffffffffffffffffffffffffffffffffffffffffffffff",
"fff           fff       fff  fff  fff        fff       fffff  ffffffff        fff  fff  ffffffffff  fff          ffffff      fff       fff  fff  fffff  fff       fffffff  fffff       ffffffff  fffff  fffff  fff  fffff  ffffff  fffffffffffffffffffffffffffffffffffffffffffffffffffff",
"ffffffffffffffffffffffffffffffffffffffffffffffffffffffffffffffffffffffffffffffffffffffffffffffffffffffffffffffffffffffffffffffffffffffffffffffffffffffffffffffffffffffffffffffffffffffffffffffffffffffffffffffffffffffffffffffffffffffffffffffffffffffffffffffffffffffffffffffffffffffff",
"ffffffffffffffffffffffffffffffffffffffffffffffffffffffffffffffffffffffffffffffffffffffffffffffffffffffffffffffffffffffffffffffffffffffffffffffffffffffffffffffffffffffffffffffffffffffffffffffffffffffffffffffffffffffffffffffffffffffffffffffffffffffffffffffffffffffffffffffffffffffff",
"ffffffffffffffffffffffffffffffffffffffffffffffffffffffffffffffffffffffffffffffffffffffffffffffffffffffffffffffffffffffffffffffffffffffffffffffffffffffffffffffffffffffffffffffffffffffffffffffffffffffffffffffffffffffffffffffffffffffffffffffffffffffffffffffffffffffffffffffffffffffff",
"ffffffffffffffffffffffffffffffffffffffffffffffffffffffffffffffffffffffffffffffffffffffffffffffffffffffffffffffffffffffffffffffffffffffffffffffffffffffffffffffffffffffffffffffffffffffffffffffffffffffffffffffffffffffffffffffffffffffffffffffffffffffffffffffffffffffffffffffffffffffff",
"ffffffffffffffffffffffffffffffffffffffffffffffffffffffffffffffffffffffffffffffffffffffffffffffffffffffffffffffffffffffffffffffffffffffffffffffffffffffffffffffffffffffffffffffffffffffffffffffffffffffffffffffffffffffffffffffffffffffffffffffffffffffffffffffffffffffffffffffffffffffff",
"ffffffffffffffffffffffffffffffffffffffffffffffffffffffffffffffffffffffffffffffffffffffffffffffffffffffffffffffffffffffffffffffffffffffffffffffffffffffffffffffffffffffffffffffffffffffffffffffffffffffffffffffffffffffffffffffffffffffffffffffffffffffffffffffffffffffffffffffffffffffff"
};