/* XPM */
static char *result[] = {
/* columns rows colors chars-per-pixel */
"280 24 2 1 ",
"  c #D8C397",
"f c None",
/* pixels */
"ffffffffffffffffffffffffffffffffffffffffffffffffffffffffffffffffffffffffffffffffffffffffffffffffffffffffffffffffffffffffffffffffffffffffffffffffffffffffffffffffffffffffffffffffffffffffffffffffffffffffffffffffffffffffffffffffffffffffffffffffffffffffffffffffffffffffffffffffffffffff",
"ffffffffffffffffffffffffffffffffffffffffffffffffffffffffffffffffffffffffffffffffffffffffffffffffffffffffffffffffffffffffffffffffffffffffffffffffffffffffffffffffffffffffffffffffffffffffffffffffffffffffffffffffffffffffffffffffffffffffffffffffffffffffffffffffffffffffffffffffffffffff",
"ffffffffffffffffffffffffffffffffffffffffffffffffffffffffffffffffffffffffffffffffffffffffffffffffffffffffffffffffffffffffffffffffffffffffffffffffffffffffffffffffffffffffffffffffffffffffffffffffffffffffffffffffffffffffffffffffffffffffffffffffffffffffffffffffffffffffffffffffffffffff",
"ffffffffffffffffffffffffffffffffffffffffffffffffffffffffffffffffffffffffffffffffffffffffffffffffffffffffffffffffffffffffffffffffffffffffffffffffffffffffffffffffffffffffffffffffffffffffffffffffffffffffffffffffffffffffffffffffffffffffffffffffffffffffffffffffffffffffffffffffffffffff",
"ffffffffffffffffffffffffffffffffffffffffffffffffffffffffffffffffffffffffffffffffffffffffffffffffffffffffffffffffffffffffffffffffffffffffffffffffffffffffffffffffffffffffffffffffffffffffffffffffffffffffffffffffffffffffffffffffffffffffffffffffffffffffffffffffffffffffffffffffffffffff",
"ffffffffffffffffffffffffffffffffffffffffffffffffffffffffffffffffffffffffffffffffffffffffffffffffffffffffffffffffffffffffffffffffffffffffffffffffffffffffffffffffffffffffffffffffffffffffffffffffffffffffffffffffffffffffffffffffffffffffffffffffffffffffffffffffffffffffffffffffffffffff",
"fff   ffffffff   fffffffffffffffffffffff  fffffffffffffffffffffffffffffffffffffffffffffffffffffffffffffffffffff  fff  ffffffffffffffffffffffffff  ffffffffffffffffffffffff  fffffffffffffffff  fff  ffffffffff  fff          fffffffffffffffffffffffff  fffffffffffffffffffffffffff  fff",
"ffff   ffffff   ffffffffffffffffffffffff  fffffffffffffffffffffffffffffffffffffffffffffffffffffffffffffffffffff  fff  ffffffffffffffffffffffffff  ffffffffffffffffffffffff  fffffffffffffffff  fff  fffffffff   fff          fffffffffffffffffffffffff  fffffffffffffffffffffffffff  fff",
"fffff   ffff   fffffffffffffffffffffffff  fffffffffffffffffffffffffffffffffffffffffffffffffffffffffffffffffffff  fff  ffffffffffffffffffffffffff  ffffffffffffffffffffffff  fffffffffffffffff  fff  ffffffff    fff  ffffff  ffffffffffffffffffffffffffffffffffffffffffffffffffffff  fff",
"ffffff   ff   fff       fff  fff  ffffff        ffff        fff  ffffff  fff         ffffff       fff       fff  fff  fff        fff       fff      fff         fff         ffffff        fff  fff  fffffff  f  fff  ffffff  ffffff      fff       fff  fff        fff       ffffff  fff",
"fffffff      ffff       fff  fff  ffffff         fff        fff  ffffff  fff         ffffff       fff       fff  fff  fff        fff       fff      fff         fff         ffffff        fff  fff  ffffff  ff  fff  ffffff  ffffff      fff       fff  fff         ff       ffffff  fff",
"ffffffff    fffff  fff  fff  fff  ffffff  fffff  fff  ffff  ffff  ffff  ffff   fff   ffffff  fff  fff  fff  fff  fff  fff   ff   fff  fff  fffff  fffff   fff   fff  fffff  ffffff  ffff  fff  fff  ffffffffff  fff  ffffff  ffffff  fff fff  fff  fff  fff  fffff  ff  fff  ffffff  fff",
"fffffffff  ffffff  fff  fff  fff  ffffff  fffff  fffffffff  ffff  ffff  ffff  fffff  ffffff  ffffffff  fff  fff  fff  fff  ffff  fff  ffffffffff  fffff  fffff  fff  fffff  ffffffffffff  fff  fff  ffffffffff  fff  ffffff  ffffff  fffffff  fff  fff  fff  fffff  ff   ffffffffff  fff",
"fffffffff  ffffff  fff  fff  fff  ffffff  fffff  fff        fffff  ff  fffff         ffffff  ffffffff  fff  fff  fff  fff        fff  ffffffffff  fffff         fff  fffff  ffffff        fff  fff  ffffffffff  fff  ffffff  ffffff  fffffff  fff  fff  fff  fffff  ffff   ffffffff  fff",
"fffffffff  ffffff  fff  fff  fff  ffffff  fffff  fff        fffff  ff  fffff  fffffffffffff  fff  fff  fff  fff  fff  fff  fffffffff  ffffffffff  fffff  ffffffffff  fffff  ffffff        fff  fff  ffffffffff  fff  ffffff  ffffff  fffffff  fff  fff  fff  fffff  ffffff   fffffffffff",
"fffffffff  ffffff  fff  fff  fff  ffffff  fffff  fff  ffff  ffffff    ffffff  fffff  ffffff  fff  fff  fff  fff  fff  fff  fffff fff  ffff fffff  fffff  fffff  fff  fffff  ffffff  ffff  fff  fff  ffffffffff  fff  ffffff  ffffff  fff fff  fff  fff  fff  fffff  fff fff   ffffffffff",
"fffffffff  ffffff       fff       ffffff  fffff  fff        ffffff    ffffff         ffffff       fff       fff  fff  fff        fff       fffff  fffff         fff         ffffff        fff  fff  ffffffffff  fff          ffffff      fff       fff  fff  fffff  fff       fffff  fff",
"fffffffff  ffffff       fff       ffffff  fffff  fff        fffffff  fffffff         ffffff       fff       fff  fff  fff        fff       fffff  fffff         fff         ffffff        fff  fff  ffffffffff  fff          ffffff      fff       fff  fff  fffff  fff       fffff  fff",
"ffffffffffffffffffffffffffffffffffffffffffffffffffffffffffffffffffffffffffffffffffffffffffffffffffffffffffffffffffffffffffffffffffffffffffffffffffffffffffffffffffffffffffffffffffffffffffffffffffffffffffffffffffffffffffffffffffffffffffffffffffffffffffffffffffffffffffffffffffffffff",
"ffffffffffffffffffffffffffffffffffffffffffffffffffffffffffffffffffffffffffffffffffffffffffffffffffffffffffffffffffffffffffffffffffffffffffffffffffffffffffffffffffffffffffffffffffffffffffffffffffffffffffffffffffffffffffffffffffffffffffffffffffffffffffffffffffffffffffffffffffffffff",
"ffffffffffffffffffffffffffffffffffffffffffffffffffffffffffffffffffffffffffffffffffffffffffffffffffffffffffffffffffffffffffffffffffffffffffffffffffffffffffffffffffffffffffffffffffffffffffffffffffffffffffffffffffffffffffffffffffffffffffffffffffffffffffffffffffffffffffffffffffffffff",
"ffffffffffffffffffffffffffffffffffffffffffffffffffffffffffffffffffffffffffffffffffffffffffffffffffffffffffffffffffffffffffffffffffffffffffffffffffffffffffffffffffffffffffffffffffffffffffffffffffffffffffffffffffffffffffffffffffffffffffffffffffffffffffffffffffffffffffffffffffffffff",
"ffffffffffffffffffffffffffffffffffffffffffffffffffffffffffffffffffffffffffffffffffffffffffffffffffffffffffffffffffffffffffffffffffffffffffffffffffffffffffffffffffffffffffffffffffffffffffffffffffffffffffffffffffffffffffffffffffffffffffffffffffffffffffffffffffffffffffffffffffffffff",
"ffffffffffffffffffffffffffffffffffffffffffffffffffffffffffffffffffffffffffffffffffffffffffffffffffffffffffffffffffffffffffffffffffffffffffffffffffffffffffffffffffffffffffffffffffffffffffffffffffffffffffffffffffffffffffffffffffffffffffffffffffffffffffffffffffffffffffffffffffffffff"
};