/* XPM */
static char *result[] = {
/* columns rows colors chars-per-pixel */
"62 62 2 1 ",
"  c #D8C397",
". c None",
/* pixels */
"                                                              ",
"                                                              ",
"                                                              ",
"                                                              ",
"                                                              ",
"                                                              ",
"                                                              ",
"                                                              ",
"                                                              ",
"                                                              ",
"                                                              ",
"                                                              ",
"                                                              ",
"                                                              ",
"                                                              ",
"                                                              ",
"                         ...........                          ",
"                       ...............                        ",
"                      .................                       ",
"                      ..................                      ",
"                      ..................                      ",
"                      ...................                     ",
"                       .....    .........                     ",
"                       ..        ........                     ",
"                                 ........                     ",
"                                 ........                     ",
"                                .........                     ",
"                           .............                      ",
"                         ..............                       ",
"                         ..............                       ",
"                         .............                        ",
"                         ..............                       ",
"                         ...............                      ",
"                          ...............                     ",
"                                .........                     ",
"                                 .........                    ",
"                                  ........                    ",
"                                  ........                    ",
"                                  ........                    ",
"                      ..         .........                    ",
"                      .....    ...........                    ",
"                     ....................                     ",
"                     ....................                     ",
"                     ...................                      ",
"                     ..................                       ",
"                     .................                        ",
"                       .............                          ",
"                                                              ",
"                                                              ",
"                                                              ",
"                                                              ",
"                                                              ",
"                                                              ",
"                                                              ",
"                                                              ",
"                                                              ",
"                                                              ",
"                                                              ",
"                                                              ",
"                                                              ",
"                                                              ",
"                                                              "
};
