/* XPM */
static char *result[] = {
/* columns rows colors chars-per-pixel */
"64 64 98 2 ",
"   c #1C1716",
".  c #1E1917",
"X  c #1F1B19",
"o  c #221D1A",
"O  c #26211D",
"+  c #29231E",
"@  c #32241D",
"#  c #2C2622",
"$  c #2E2823",
"%  c #372720",
"&  c #322B25",
"*  c #3B2B24",
"=  c #352E29",
"-  c #382F28",
";  c #373029",
":  c #3B322B",
">  c #3F3831",
",  c #412F27",
"<  c #43342C",
"1  c #4A362D",
"2  c #45392F",
"3  c #4D382F",
"4  c #443A31",
"5  c #4C3C31",
"6  c #543D33",
"7  c #583F34",
"8  c #564135",
"9  c #594236",
"0  c #5D4539",
"q  c #5F483D",
"w  c #61473B",
"e  c #634A3D",
"r  c #694D3F",
"t  c #664D41",
"y  c #694E41",
"u  c #675143",
"i  c #6C5345",
"p  c #6F5749",
"a  c #6F584A",
"s  c #715647",
"d  c #715748",
"f  c #745A4B",
"g  c #795E4E",
"h  c #765F50",
"j  c #785F50",
"k  c #7B604F",
"l  c #776050",
"z  c #7D6352",
"x  c #7F6955",
"c  c #816654",
"v  c #856956",
"b  c #896D57",
"n  c #856B59",
"m  c #896D5A",
"M  c #87715B",
"N  c #8C725D",
"B  c #90765E",
"V  c #937A5E",
"C  c #8E7561",
"Z  c #917660",
"A  c #947B62",
"S  c #997E64",
"D  c #987F68",
"F  c #9B835E",
"G  c #978064",
"H  c #9B8365",
"J  c #9E8A65",
"K  c #9D8569",
"L  c #9E8A6A",
"P  c #A08666",
"I  c #A28B65",
"U  c #A0866A",
"Y  c #A38C6B",
"T  c #A49166",
"R  c #A5926B",
"E  c #A9946D",
"W  c #AD996E",
"Q  c #A68F70",
"!  c #A69070",
"~  c #AC9671",
"^  c #AD9B72",
"/  c #AD9F79",
"(  c #B19E75",
")  c #B09F78",
"_  c #ADA175",
"`  c #ADA37B",
"'  c #B3A177",
"]  c #B4A47B",
"[  c #B6A97F",
"{  c #B5AB83",
"}  c #B9AC83",
"|  c #B5AD88",
" . c #BCAF88",
".. c #BAB087",
"X. c #B7B18C",
"o. c #BCB28B",
"O. c #BFB692",
"+. c #C1B791",
/* pixels */
"  X o X X X o X o X X . X X X o o o X X   X X X X X X X . X o X . . . X X X X X X X X X X X     X     X o     o     o       o X ",
". X o o o X   o X X X o X X X X X     X X X X X X X     . o X X X X . o X X X o X o X X X X   X X     X     o   X o       o X   ",
"X X X o o o   o X     o X X X o   o o o X X X X X X o X o o   o . . . . X X $ ; # o X o o o X X . X .   o     o     o   X X     ",
"X o o @ % * , < 1 1 1 1 5 6 7 9 0 7 t 7 7 # + o # d a d s s i o + i s d d i i $ o # # q e q 9 9 7 6 6 6 6 3 1 < , , % % %   X X ",
"X X o @ , 1 1 6 6 7 7 7 7 0 0 w t y t w - # o @ f j c c d g d o O s g j z g f p < # O # t t t w 0 0 0 0 0 9 7 5 3 , , , % $   o ",
"X X   * < 1 6 9 0 0 0 w 0 w w t y y t $ # o - d j c c c c g f o & f c x x c k f i 5 # o # w t w e e w w w w 0 7 7 6 3 < % #   X ",
"X X X , 1 6 9 w t e e e e y t y y y # O o - g c c c v c c g s & = g c v c c c g f d 5 & % % t t r r e e e e e w 7 7 6 1 *   X   ",
"X X X < 3 9 w y y y y y i i s i y = o o < j c c v v v v c g s * & z v n v c c k j h a 5 $ # - t t y t y y y i y t t 7 6 < X X o ",
"X o   1 6 9 t u y i i i d f d y - o o - j c v v v b b v v z f & O x n n m c c c c c j j 5 # O 4 y y i y i i d i t 0 0 6 1 # o X ",
"    o 3 7 q t i d d d d f d p < # # - j c v v v v b n b b v z O O v m N m b m v c c n c j < # O 1 y f f f d d i y t q 7 4 # X X ",
"o X   3 0 t i p d f d f d i = $ + - c c b v b b n m N N N b v o & v N B N Z m m m m m m c j < # o : i f d f f d i t t 0 6   o o ",
"X   o 5 9 t i f h f f f p : # + * c c b b b m m N B N B V N v & = v N Z Z Z Z Z m m m m v j h , + O < i d d f d p y q 0 6 # X X ",
"    # 6 0 r i f g g d p = & o 4 c v n m b b N B B V A A A N o # & = x V A A A Z Z C m m m v c g : O # < i p a a p y t 0 6 # X X ",
"    # 6 e y p d g f p = $ o - j v m N N N N B V V A S S V o o $ $ $ 8 N A G S A Z Z Z m m b v c j < O # < p d d p t t 0 6 # X X ",
"X   # 7 e u p d p i : # o - z n m Z B N Z A A S S H S V & o o o # O & 8 V G G S D S Z Z m m m m n j : o o : y d p y t t 7 $ X X ",
"X   # 0 r y p i i : o o % z v m m B Z A S S S H U H H o o o - V B & O $ 8 C H H D S S S Z Z Z m C n x = o + : y i i y t 7 # X X ",
"X X o e y i i e < # o % j c m N Z Z Z S S H U U K G & X O + F F H V > o O : G K P P D D A A Z C C C m n : # O $ t i s r 9 # X X ",
".   X t i y e : $ o # j c m m N Z Z A S K U Y U K & X O + H P I I H F : O O ; G U U U D K D A A Z Z C C v & o # ; t u u 0 % o X ",
"X   X t u t : # o % c c m m N Z A A D U K Q U L # o o : J I I E T I I H $ o # & P U U U U K H S D A C C M v : O O ; e r q $ X X ",
". X   t t < o O * d c v m m Z Z A S D U Y L L & o o : I T E E E ~ E E R Y & O # o U Q Y Y U U K D D A C N n z : O # : q 9 $ X X ",
". . o q : # O : s c c b M N C A D G K Y Y L : O # # J Y E W W ( ( ~ ~ ( E Y & O # o U Y ! Y Y K D A A C N M x l 5 o $ - 8 $ o X ",
"X . . # O O : p g c c b N C A A G K Y Y L = X # & R E ~ ( ( ( ( ( ( ( ( ^ W E $ o o o Y Y R Y U D D A C N n n z f 4 O $ # $ X X ",
".     O o - t f g c n m N A A S K K L L # X o o Y ~ ( ( ( ( ( ' ' ' ( ( _ ( E Y   o X o Y Y R L K H A A C M M x z a : # $ # X X ",
".     . & r p g c v n N C A S K K L K > o # X # o E ( ' ] ( ] ] ] ] ' ] ' ^ E & o X   o O J U L U H S A Z N n v x l p # # # X X ",
"X . . o r p d k c v b m N S G H K K & O O O Y # O & / _ ] [ [ [ [ [ ] ] ( / & O ; J # o # # H L K H H D G C M M x z j a & #   X ",
"X . o t s f g k c v m B A S H K G = O + = E ^ E $ + = ` ] } } } } } } ] ^ & # & E E R # + # ; J K K K K G C C x n n c j p #     ",
". X o u f g k c v m m Z A G G G $ O # & Y W ( ) ^ % O = { { o.o.+.} [ ) = O & / ( ( W E # + # $ H J K K G A C C C m n x a # X X ",
". . X i f g z c v m B Z A G V ; O # $ L ~ ( ) ] ` ` & O = | o.o.+.[ { & O # ` ] ] ] ( W R > # $ # S G G G A C C C M m x h & X X ",
". X . p g g k c v m B A Z N 4 O O # J R ~ ' ] ] { ] { # O = | o.o.| = + = { { } [ ] ] ( E I + + $ & V V A A C C N n n c d & o X ",
"  X X d g z k z v N Z N N $ O + # J Y ~ ^ ' ] ] } } { { % O $ | | + + : { } } } [ [ ] ( ^ E F ; O # ; N C Z C M n n z j i $ X X ",
"  X o p f f f g c c b b ; O O + F J R ~ ( ' ] { }  . .o.X.# O # $ + ; { o.o...} } [ ] ( ^ R I V $ O O = M M n z z l f i t # X X ",
". X o o o o o o o o o o # # O N G J E ^ ) ' ] } }  .o.+.O.X.O O O + [ ..o...} ..[ ] ] ( W E I F B # # # # $ & $ # # # X O X X X ",
". . . O o # O & = # # # # # o C S Y E ~ ( ] ] [ } ..o.+.O.X.& + O $ [ { ......[ [ ] ' ( W T T F V o # # # O # # o O O o o . X   ",
"o . . i d s s d g x M M = # o = V P E ~ ( ( ] [ } ..o.o.X.+ O & ; $ $ ` ` [ [ [ [ ] ' ( W T I V o @ o # m m v c z z g d i o X o ",
". o . s f f f g x n Z A C # + O + P Y ~ ( ) ] [ [ } | | $ O & ` ` = $ ; _ ] [ [ ] ' ( W W T F o O o - B Z Z m m n c j g s X . X ",
"X .   i f f f g c m C S G C : # o + U E ( ( ] ] ] } [ $ O $ { ..[ { & # ; _ _ ] ' ' W W T I * o . # V A Z C C n v x c j d X X . ",
".   . i d f g z v m A D D K D $ & O # I ~ / ^ ] ] ) $ o = { X.o.o...{ ; $ $ _ _ _ W W T I # o o # S A S A Z C n c c z z f o . X ",
"X X o u d g g c n C A D U U K D % # O O R W ^ ` ) & # = ' [ ..o.o.o...[ & + $ T W W E T o o o + V S H A Z Z m n v x z z f X X X ",
"X o o u d j z v m C S G U U Y K L $ + O # R E ~ & O & ^ ] [ }  .........` ; $ $ T T I o . o O H P H S A Z Z m m v z x g d X X X ",
"o o . & i h z v N Z D D D U U Q L L # + o ; L > & & ~ / ] ] [ } ..[ ..[ ] _ : & > J o o o O H H P H S S A Z N m n v z d & X X X ",
"X . X o : d g v n C D D D K U Q R Q L = $ # # X $ E ^ ' ' ] ] [ [ [ [ [ ] ^ T $ O O o . & H J P H D D D Z C C M n z h $ O X o X ",
"X   O # . 2 p h v N C A D K K Y L Q Q L 4 $ # $ J E ^ _ ( ' ' ] [ [ [ [ ' ^ T F O O o O H H P J S D Z A Z C C M n z $ o $ X X X ",
"X X o # o O 2 p j n C Z D A D U L Q Q Q L > # o & R W ^ ( ' ' ' ' ' ' ' _ E J ; o X + J P P P S S S D C C C C x x # X O $ X X X ",
"X X . q ; o o : f z n m C C D K K U Y Q Q L ; # O & I R W W ( ( ( ( ( W E T > # o # J J P H S S A A C C C M n z # X # - 5 X X o ",
"o o X e t : # o - j c n m Z Z S K U K Y Q L K = + X = J R ^ ^ ^ W W R R J 2 # o = J I P H S A V C C N M n c z & o & 4 7 7 o o X ",
"X X X e t 0 & $ # - h j m m Z A A D K K L Q L K O O X 4 K Y ~ ~ E W I J : # O # H J P H H V V B N N M n x l $ o o 4 0 t w X X   ",
". X X e u q 8 : # + & h c m N Z A D K H K L L L K $ o X 4 L R ~ E I H : + O = F J U J S V V B B N b n v h = O & 6 w t y t X X X ",
"X X X 0 e e 0 8 - # o - f c m Z Z A S S K K K Y L K $ # o & I E T J ; + O # F G H H S V V B B N b n x z = o & 6 t y y t 7 X X X ",
"X X O 8 w w e e 0 @ # X ; l v n N Z A S S H K K U U L + o o # K H ; O O - B V F H F V B B N M n n z z # o & 5 i d i r e 9 X X X ",
"o X X 8 w w e r u e # # O : k v b M N Z A S S J U U K K o o o o O O o ; V V F F V B B N N N b v c g $ o % 3 d f f s r w 7 o o o ",
"X X X 8 w r r u i i u ; # o & z c b M N N V A S H K K K S # o # + O + V V F V N N N b b v b c z f - o $ 3 d s c d s r w 6 X X X ",
"o . . 8 w r u u i p u u : # o + f c v b N B B A A S S H A Z - # + $ B V V B V N N b b b v c z f : O & 4 s s c g f s r w 7 X o X ",
"o X o 8 w r r s d p s p i ; O X & f z v b b N N N A Z Z A V N o o M V V V B b b b v v c c z f > O # 4 f g c g d s s y w 6 X o X ",
"X X . 8 w r u i p d d f a p & + . = l k c b b M b N N N Z N m o O b B N b b b v c c c c z f 4 # $ < d g c g c d s y r w 7 o X X ",
"o X X 8 w e i i d d f f f f p = o o : g z c v v n n n n m b c o O c b b b v v c x z k k f 4 O & & s g j g g f d s y e w 6 X   X ",
"o . X 6 0 e r s d f f f f l l p $ o . : g k k c c n v v c c j o @ k v v v c c c k k k s < # $ - s g g g g f f d s y e 9 6 X . X ",
"X X   6 7 7 y y i s d d f f g f s & O o : d k k z z z k z z g O & f c v c c z k j j f & o o : i d g g j f g d d y y q 9 5   o   ",
"X o o 1 7 7 t t y y y y d d d f s p & O X & s f k k k g k z d & & f x x c z k k j f - o o < y d f g g f f d d i y r q 7 1 o o o ",
"X o o , 6 6 7 t t t e t y y y d s s u & O O & i d g g g g k a $ & f z z c c k g a & X O < y i f s d f d d i i t y t 7 6 1 X   o ",
"X X o - 1 3 6 7 7 0 0 0 w e t y y i y e & o o : i s f f g g f # + p g g g g f s o X o < t y d i i i y y y y t e w 9 7 3 , X o X ",
"X X + % * - 1 1 1 1 3 3 6 6 6 7 9 0 e 0 9 $ + o $ r u i i d p o $ t u i u s y + o # # 7 0 t t 0 0 7 7 0 8 7 8 6 6 3 < * % X X   ",
"X   X # $ # # $ $ & & & & $ $ $ $ $ $ $ $ $ # + o & $ $ $ $ $ # # $ $ $ # # # % # # # $ # # # $ % & & # # O # # $ # $ & & X X X ",
"  X X X   o X X X X X X X X o o X X X   . X X X X X X X X X X X X X X X X X X X X X X X o o X X o       X     X X X X X X X X   ",
"    X X   X X X X o X X X X o o X X X X X X . X o X X . X X X X   . X X X X o X X X X X X X   o         X X X   X   X o X X     "
};
